<?xml version="1.0" encoding="utf-8"?>
<!-- Generator: Adobe Illustrator 28.2.0, SVG Export Plug-In . SVG Version: 6.00 Build 0)  -->
<svg version="1.1" id="Layer_1" xmlns="http://www.w3.org/2000/svg" xmlns:xlink="http://www.w3.org/1999/xlink" x="0px" y="0px"
	 width="1754px" height="385px" viewBox="0 0 1754 385" style="enable-background:new 0 0 1754 385;" xml:space="preserve">
<style type="text/css">
	.st0{fill:url(#SVGID_1_);}
	.st1{fill:url(#SVGID_00000063610503680905151510000008403825307850367931_);}
	.st2{fill:url(#SVGID_00000069391255387167554180000017573223378292698034_);}
	.st3{fill:url(#SVGID_00000178163179186219801720000002106475269346207895_);}
	.st4{fill:url(#SVGID_00000048466009463539124700000007016900796603524285_);}
</style>
<g>
	<g>
		<linearGradient id="SVGID_1_" gradientUnits="userSpaceOnUse" x1="-328.3333" y1="192.4991" x2="2325.134" y2="192.4991">
			<stop  offset="0" style="stop-color:#FFFFFF"/>
			<stop  offset="1" style="stop-color:#73BF44"/>
		</linearGradient>
		<path class="st0" d="M2.4,384V1h72.6v383H2.4z"/>
		
			<linearGradient id="SVGID_00000105410928753462819800000008244791001327754113_" gradientUnits="userSpaceOnUse" x1="-259" y1="192.5" x2="2394.4673" y2="192.5">
			<stop  offset="0" style="stop-color:#FFFFFF"/>
			<stop  offset="1" style="stop-color:#73BF44"/>
		</linearGradient>
		<path style="fill:url(#SVGID_00000105410928753462819800000008244791001327754113_);" d="M414.5,1c62.1,0,113.9,51.8,113.9,113.9
			V384h-72.6V114.9c0-22.1-19.3-41.3-41.3-41.3H218.1V384h-72.6V1C145.4,1,392.1,1,414.5,1z"/>
		
			<linearGradient id="SVGID_00000124840110856853117880000002197660611216006586_" gradientUnits="userSpaceOnUse" x1="-259" y1="192.5011" x2="2394.4673" y2="192.5011">
			<stop  offset="0" style="stop-color:#FFFFFF"/>
			<stop  offset="1" style="stop-color:#73BF44"/>
		</linearGradient>
		<path style="fill:url(#SVGID_00000124840110856853117880000002197660611216006586_);" d="M947.7,384H870l-31.9-82.6H683.5
			L651.6,384h-77.7L722,1h77.7L947.7,384z M810,228.8l-49.2-127.4l-49.2,127.4H810z"/>
		
			<linearGradient id="SVGID_00000135673987707317638500000012658491594673117584_" gradientUnits="userSpaceOnUse" x1="-259" y1="192.5011" x2="2394.4673" y2="192.5011">
			<stop  offset="0" style="stop-color:#FFFFFF"/>
			<stop  offset="1" style="stop-color:#73BF44"/>
		</linearGradient>
		<path style="fill:url(#SVGID_00000135673987707317638500000012658491594673117584_);" d="M1040.1,1v269.1
			c0,22.1,19.3,41.3,41.3,41.3h269.1V384h-269.1c-62.1,0-113.9-51.8-113.9-113.9V1H1040.1z"/>
		
			<linearGradient id="SVGID_00000109729464303888951050000011144183204902263974_" gradientUnits="userSpaceOnUse" x1="-259" y1="192.5011" x2="2394.4673" y2="192.5011">
			<stop  offset="0" style="stop-color:#FFFFFF"/>
			<stop  offset="1" style="stop-color:#73BF44"/>
		</linearGradient>
		<path style="fill:url(#SVGID_00000109729464303888951050000011144183204902263974_);" d="M1751.6,384h-77.7l-31.9-82.6h-154.6
			l-31.9,82.6h-77.7L1525.8,1h77.7L1751.6,384z M1613.9,228.8l-49.2-127.4l-49.2,127.4H1613.9z"/>
	</g>
</g>
</svg>
