<?xml version="1.0" encoding="UTF-8"?>
<svg id="Layer_1" data-name="Layer 1" xmlns="http://www.w3.org/2000/svg" width="1755" height="386" viewBox="0 0 1755 386">
  <defs>
    <style>
      .cls-1 {
        fill: #222526;
        stroke-width: 0px;
      }
    </style>
  </defs>
  <path class="cls-1" d="M2.6,385.57V2.52h72.65v383.05H2.6Z"/>
  <path class="cls-1" d="M414.69,2.52c62.1,0,113.93,51.84,113.93,113.92v269.13h-72.65V116.44c0-22.07-19.29-41.28-41.27-41.28h-196.48v310.4h-72.65V2.52s246.73,0,269.12,0Z"/>
  <path class="cls-1" d="M947.87,385.57h-77.67l-31.91-82.56h-154.64l-31.91,82.56h-77.67L722.13,2.52h77.66l148.07,383.05ZM810.2,230.37l-49.24-127.39-49.24,127.39h98.48Z"/>
  <path class="cls-1" d="M1040.22,2.52v269.12c0,22.07,19.3,41.27,41.28,41.27h269.12v72.66h-269.12c-62.1,0-113.93-51.85-113.93-113.92V2.52h72.65Z"/>
  <path class="cls-1" d="M1751.73,385.57h-77.67l-31.91-82.56h-154.64l-31.91,82.56h-77.67L1526,2.52h77.66l148.07,383.05ZM1614.07,230.37l-49.24-127.39-49.24,127.39h98.48Z"/>
</svg>