<?xml version="1.0" encoding="utf-8"?>
<!-- Generator: Adobe Illustrator 28.2.0, SVG Export Plug-In . SVG Version: 6.00 Build 0)  -->
<svg version="1.1" id="Layer_1" xmlns="http://www.w3.org/2000/svg" xmlns:xlink="http://www.w3.org/1999/xlink" x="0px" y="0px"
	 width="1754px" height="385px" viewBox="0 0 1754 385" style="enable-background:new 0 0 1754 385;" xml:space="preserve">
<style type="text/css">
	.st0{fill:url(#SVGID_1_);}
	.st1{fill:url(#SVGID_00000132068781824821377180000002588637940582073278_);}
	.st2{fill:url(#SVGID_00000008848463581343568260000014522375457494191008_);}
	.st3{fill:url(#SVGID_00000005266612520106342080000009816468629763522216_);}
	.st4{fill:url(#SVGID_00000165921027299998131320000016794668901294438586_);}
</style>
<g>
	<g>
		<linearGradient id="SVGID_1_" gradientUnits="userSpaceOnUse" x1="-328.3333" y1="192.4991" x2="2325.134" y2="192.4991">
			<stop  offset="0" style="stop-color:#FFFFFF"/>
			<stop  offset="1" style="stop-color:#73BF44"/>
		</linearGradient>
		<path class="st0" d="M2.4,384V1h72.6v383H2.4z"/>
		
			<linearGradient id="SVGID_00000053536633790688762310000008260890621620404650_" gradientUnits="userSpaceOnUse" x1="-259" y1="192.5" x2="2394.4673" y2="192.5">
			<stop  offset="0" style="stop-color:#FFFFFF"/>
			<stop  offset="1" style="stop-color:#73BF44"/>
		</linearGradient>
		<path style="fill:url(#SVGID_00000053536633790688762310000008260890621620404650_);" d="M414.5,1c62.1,0,113.9,51.8,113.9,113.9
			V384h-72.6V114.9c0-22.1-19.3-41.3-41.3-41.3H218.1V384h-72.6V1C145.4,1,392.1,1,414.5,1z"/>
		
			<linearGradient id="SVGID_00000013891352592344605090000012624153538566273953_" gradientUnits="userSpaceOnUse" x1="-259" y1="192.5011" x2="2394.4673" y2="192.5011">
			<stop  offset="0" style="stop-color:#FFFFFF"/>
			<stop  offset="1" style="stop-color:#73BF44"/>
		</linearGradient>
		<path style="fill:url(#SVGID_00000013891352592344605090000012624153538566273953_);" d="M947.7,384H870l-31.9-82.6H683.5
			L651.6,384h-77.7L722,1h77.7L947.7,384z M810,228.8l-49.2-127.4l-49.2,127.4H810z"/>
		
			<linearGradient id="SVGID_00000180357817626491322110000008639839212697552781_" gradientUnits="userSpaceOnUse" x1="-259" y1="192.5011" x2="2394.4673" y2="192.5011">
			<stop  offset="0" style="stop-color:#FFFFFF"/>
			<stop  offset="1" style="stop-color:#73BF44"/>
		</linearGradient>
		<path style="fill:url(#SVGID_00000180357817626491322110000008639839212697552781_);" d="M1040.1,1v269.1
			c0,22.1,19.3,41.3,41.3,41.3h269.1V384h-269.1c-62.1,0-113.9-51.8-113.9-113.9V1H1040.1z"/>
		
			<linearGradient id="SVGID_00000003067766004835323080000007875740626513701528_" gradientUnits="userSpaceOnUse" x1="-259" y1="192.5011" x2="2394.4673" y2="192.5011">
			<stop  offset="0" style="stop-color:#FFFFFF"/>
			<stop  offset="1" style="stop-color:#73BF44"/>
		</linearGradient>
		<path style="fill:url(#SVGID_00000003067766004835323080000007875740626513701528_);" d="M1751.6,384h-77.7l-31.9-82.6h-154.6
			l-31.9,82.6h-77.7L1525.8,1h77.7L1751.6,384z M1613.9,228.8l-49.2-127.4l-49.2,127.4H1613.9z"/>
	</g>
</g>
</svg>
