<?xml version="1.0" encoding="UTF-8"?>
<svg id="Layer_1" data-name="Layer 1" xmlns="http://www.w3.org/2000/svg" xmlns:xlink="http://www.w3.org/1999/xlink" viewBox="0 0 44 44">
  <defs>
    <style>
      .cls-1 {
        fill: url(#linear-gradient);
        fill-rule: evenodd;
      }

      .cls-1, .cls-2, .cls-3 {
        stroke-width: 0px;
      }

      .cls-2 {
        fill: url(#linear-gradient-2);
      }

      .cls-3 {
        fill: url(#linear-gradient-3);
      }
    </style>
    <linearGradient id="linear-gradient" x1="4.9" y1="9.71" x2="8.82" y2="9.71" gradientUnits="userSpaceOnUse">
      <stop offset="0" stop-color="#73bf44"/>
      <stop offset="1" stop-color="#0e773c"/>
    </linearGradient>
    <linearGradient id="linear-gradient-2" x1="28.03" y1="24.61" x2="0" y2="24.61" gradientUnits="userSpaceOnUse">
      <stop offset="0" stop-color="#0e773c"/>
      <stop offset="1" stop-color="#73bf44"/>
    </linearGradient>
    <linearGradient id="linear-gradient-3" x1="15.77" y1="24.63" x2="44" y2="24.63" xlink:href="#linear-gradient"/>
  </defs>
  <path class="cls-1" d="M8.82,8.83l-.16.58v2h-1.25l-.5.24c.29-.23.52-.54.64-.72.39-.73.91-1.59,1.26-2.1M5.02,7.77h3.64v.33h0v.39c-1.97-.15-3.34.39-3.76,1.74l.12-.64v-1.82ZM5.08,11.56h-.15v-.15c.74-1.11,1.74-2.03,2.9-2.49-1.21.72-2.13,1.61-2.75,2.65Z"/>
  <path class="cls-2" d="M27.12,19.96c-.85-2.04-2.27-3.79-4-4.92-2.68-1.76-5.81-1.99-8.25-2-.79,0-14.84-.01-14.84-.01l-.02,3.65s14.07.01,14.86.01c1.92,0,4.37.17,6.25,1.4,1.13.74,2.06,1.9,2.64,3.28,1.02,2.44.77,5.45-.64,7.65-1.79,2.78-5.35,4.13-8.66,3.28-3.42-.88-5.81-4.22-5.81-8.13v-5.79h-3.65v5.79c0,5.58,3.52,10.37,8.56,11.67.96.25,1.93.36,2.89.36,3.89,0,7.65-1.93,9.75-5.21,2.07-3.23,2.44-7.45.94-11.03Z"/>
  <path class="cls-3" d="M31.09,36.23c-1.35,0-2.71-.03-4.06-.13-5.57-.42-9.64-3.58-10.88-8.47-1.22-4.82.61-9.88,4.58-12.58,3.71-2.53,8.72-2.71,12.46-.46,3.51,2.12,5.68,6.19,5.64,10.63l-3.65-.03c.02-3.15-1.46-6.01-3.88-7.47-2.54-1.53-5.96-1.39-8.51.35-2.66,1.81-3.93,5.37-3.09,8.66,1.21,4.75,5.72,5.65,7.61,5.73,2.03.08,4.1.05,6.17.05.65,0,1.34,0,1.99-.01,1.81,0,3.59.02,5.4,0h3.11s.02,3.72.02,3.72h-8.56c-.64,0-1.28,0-1.92,0-.8,0-1.61,0-2.42,0Z"/>
</svg>