<?xml version="1.0" encoding="UTF-8"?>
<svg id="Layer_1" data-name="Layer 1" xmlns="http://www.w3.org/2000/svg" width="169" height="45" xmlns:xlink="http://www.w3.org/1999/xlink" viewBox="0 0 169 45">
  <defs>
    <style>
      .cls-1, .cls-2, .cls-3, .cls-4 {
        stroke-width: 0px;
      }

      .cls-2 {
        fill: url(#linear-gradient);
        fill-rule: evenodd;
      }

      .cls-3 {
        fill: url(#linear-gradient-2);
      }

      .cls-4 {
        fill: url(#linear-gradient-3);
      }
    </style>
    <linearGradient id="linear-gradient" x1="7.73" y1="3.06" x2="13.91" y2="3.06" gradientUnits="userSpaceOnUse">
      <stop offset="0" stop-color="#222526"/>
      <stop offset="1" stop-color="#000"/>
    </linearGradient>
    <linearGradient id="linear-gradient-2" x1="0" y1="26.56" x2="44.2" y2="26.56" xlink:href="#linear-gradient"/>
    <linearGradient id="linear-gradient-3" x1="24.87" y1="26.58" x2="69.39" y2="26.58" xlink:href="#linear-gradient"/>
  </defs>
  <g>
    <path class="cls-2" d="M13.91,1.67l-.25.91v3.16h-1.97l-.78.38c.46-.36.82-.85,1.01-1.14.61-1.14,1.44-2.5,1.99-3.32M7.91,0h5.74v.52h0v.61c-3.11-.24-5.27.62-5.93,2.74l.19-1V0ZM8.01,5.97h-.24v-.24c1.16-1.75,2.75-3.21,4.57-3.93-1.91,1.14-3.36,2.53-4.33,4.18Z"/>
    <path class="cls-3" d="M42.76,19.22c-1.34-3.22-3.59-5.97-6.31-7.76-4.23-2.77-9.17-3.14-13-3.15-1.24,0-23.41-.02-23.41-.02l-.04,5.76s22.18.02,23.43.02c3.04,0,6.9.26,9.85,2.2,1.78,1.17,3.26,3,4.16,5.17,1.61,3.86,1.21,8.59-1.02,12.06-2.82,4.39-8.43,6.51-13.65,5.17-5.4-1.39-9.16-6.66-9.16-12.82v-9.12h-5.76v9.12c0,8.79,5.55,16.36,13.49,18.4,1.51.39,3.04.57,4.55.57,6.13,0,12.06-3.04,15.38-8.21,3.27-5.09,3.84-11.76,1.49-17.39Z"/>
    <path class="cls-4" d="M49.03,44.88c-2.12,0-4.27-.04-6.41-.2-8.79-.66-15.2-5.65-17.16-13.36-1.93-7.6.97-15.57,7.22-19.83,5.86-3.99,13.75-4.28,19.65-.72,5.54,3.35,8.95,9.77,8.9,16.76l-5.76-.04c.04-4.97-2.31-9.48-6.12-11.79-4-2.42-9.4-2.2-13.42.55-4.19,2.85-6.19,8.47-4.88,13.65,1.9,7.49,9.02,8.92,12,9.03,3.2.13,6.46.08,9.73.08,1.03,0,2.12-.01,3.14-.02,2.86-.01,5.66.03,8.52.01h4.91s.03,5.87.03,5.87h-13.5c-1.01,0-2.02-.01-3.03,0-1.26.02-2.54,0-3.82,0Z"/>
  </g>
  <g>
    <path class="cls-1" d="M81.9,18.12v-9.89h1.88v9.89h-1.88Z"/>
    <path class="cls-1" d="M92.46,8.23c1.6,0,2.94,1.34,2.94,2.94v6.95h-1.88v-6.95c0-.57-.5-1.07-1.07-1.07h-5.07v8.02h-1.88v-9.89h6.95Z"/>
    <path class="cls-1" d="M106.15,18.12h-2.01l-.82-2.13h-3.99l-.82,2.13h-2.01l3.82-9.89h2.01l3.82,9.89ZM102.59,14.11l-1.27-3.29-1.27,3.29h2.54Z"/>
    <path class="cls-1" d="M108.45,8.23v6.95c0,.57.5,1.07,1.07,1.07h6.95v1.88h-6.95c-1.6,0-2.94-1.34-2.94-2.94v-6.95h1.88Z"/>
    <path class="cls-1" d="M126.74,18.12h-2.01l-.82-2.13h-3.99l-.82,2.13h-2.01l3.82-9.89h2.01l3.82,9.89ZM123.19,14.11l-1.27-3.29-1.27,3.29h2.54Z"/>
    <path class="cls-1" d="M91.79,26.56c0,2.69-2.26,4.95-4.95,4.95h-4.95v-9.89h4.95c2.69,0,4.95,2.26,4.95,4.95ZM89.91,26.56c0-1.66-1.42-3.07-3.07-3.07h-3.07v6.14h3.07c1.65,0,3.07-1.41,3.07-3.07Z"/>
    <path class="cls-1" d="M93.05,31.5v-9.89h1.88v9.89h-1.88Z"/>
    <path class="cls-1" d="M104.49,25.62h1.88v5.88h-6.95c-1.6,0-2.94-1.34-2.94-2.94v-4.01c0-1.6,1.34-2.94,2.94-2.94h6.95v1.88h-6.95c-.57,0-1.07.5-1.07,1.07v4.01c0,.57.5,1.07,1.07,1.07h5.07v-4.01Z"/>
    <path class="cls-1" d="M108,31.5v-9.89h1.88v9.89h-1.88Z"/>
    <path class="cls-1" d="M111.06,23.49v-1.88h9.89v1.88h-4.01v8.02h-1.88v-8.02h-4.01Z"/>
    <path class="cls-1" d="M129.82,31.5h-2.01l-.82-2.13h-3.99l-.82,2.13h-2.01l3.82-9.89h2.01l3.82,9.89ZM126.27,27.5l-1.27-3.29-1.27,3.29h2.54Z"/>
    <path class="cls-1" d="M132.13,21.61v6.95c0,.57.5,1.07,1.07,1.07h6.95v1.88h-6.95c-1.6,0-2.94-1.34-2.94-2.94v-6.95h1.88Z"/>
    <path class="cls-1" d="M84.66,34.99h6.95v1.88h-6.95c-.57,0-1.07.5-1.07,1.07v4.01c0,.57.5,1.07,1.07,1.07h6.95v1.88h-6.95c-1.6,0-2.94-1.34-2.94-2.94v-4.01c0-1.6,1.34-2.94,2.94-2.94Z"/>
    <path class="cls-1" d="M99.75,40.88l3,4.01h-2.34l-3-4.01c-.91,0-2.05.17-2.68.8v3.21h-1.88v-9.89h6.95c1.6,0,2.94,1.34,2.94,2.94s-1.36,2.94-3,2.94ZM97.41,39h2.39c.57,0,1.07-.5,1.07-1.07s-.5-1.07-1.07-1.07h-5.07v2.93c.65-.65,1.79-.8,2.68-.8Z"/>
    <path class="cls-1" d="M105.81,36.87v2.13h6.32v1.88h-6.32v1.07c0,.57.5,1.07,1.07,1.07h6.95v1.88h-6.95c-1.6,0-2.94-1.34-2.94-2.94v-6.95h9.89v1.88h-8.02Z"/>
    <path class="cls-1" d="M124.2,44.89h-2.01l-.82-2.13h-3.99l-.82,2.13h-2.01l3.82-9.89h2.01l3.82,9.89ZM120.65,40.88l-1.27-3.29-1.27,3.29h2.54Z"/>
    <path class="cls-1" d="M123.41,36.87v-1.88h9.89v1.88h-4.01v8.02h-1.88v-8.02h-4.01Z"/>
    <path class="cls-1" d="M134.48,44.89v-9.89h1.88v9.89h-1.88Z"/>
    <path class="cls-1" d="M139.54,34.99l2.82,7.3,2.82-7.3h2.01l-3.82,9.89h-2.01l-3.82-9.89h2.01Z"/>
    <path class="cls-1" d="M150.07,36.87v2.13h6.32v1.88h-6.32v1.07c0,.57.5,1.07,1.07,1.07h6.95v1.88h-6.95c-1.6,0-2.94-1.34-2.94-2.94v-6.95h9.89v1.88h-8.02Z"/>
    <path class="cls-1" d="M161.99,34.99h6.95v1.88h-6.95c-.57,0-1.07.5-1.07,1.07s.5,1.07,1.07,1.07h4.01c1.6,0,2.94,1.34,2.94,2.94s-1.34,2.94-2.94,2.94h-6.95v-1.88h6.95c.57,0,1.07-.5,1.07-1.07s-.5-1.07-1.07-1.07h-4.01c-1.6,0-2.94-1.34-2.94-2.94s1.34-2.94,2.94-2.94Z"/>
  </g>
</svg>